<svg width="599" height="134" viewBox="0 0 599 134" fill="none" xmlns="http://www.w3.org/2000/svg">
<path d="M216.098 55.8106H202.817C202.438 53.6326 201.74 51.7032 200.722 50.0223C199.704 48.3178 198.437 46.8736 196.922 45.6899C195.407 44.5062 193.679 43.6184 191.737 43.0266C189.82 42.411 187.748 42.1033 185.523 42.1033C181.569 42.1033 178.065 43.0976 175.011 45.0862C171.957 47.0512 169.566 49.9394 167.838 53.751C166.11 57.5389 165.246 62.1671 165.246 67.6359C165.246 73.1993 166.11 77.8868 167.838 81.6984C169.59 85.4863 171.981 88.3508 175.011 90.2921C178.065 92.2097 181.557 93.1685 185.487 93.1685C187.665 93.1685 189.701 92.8844 191.595 92.3162C193.513 91.7244 195.229 90.8603 196.744 89.7239C198.283 88.5876 199.573 87.1908 200.615 85.5336C201.68 83.8764 202.414 81.9824 202.817 79.8518L216.098 79.9228C215.601 83.3792 214.524 86.6226 212.866 89.6529C211.233 92.6832 209.09 95.3584 206.439 97.6784C203.787 99.9748 200.686 101.774 197.135 103.076C193.584 104.355 189.642 104.994 185.31 104.994C178.918 104.994 173.212 103.514 168.193 100.555C163.174 97.5956 159.221 93.3224 156.332 87.7353C153.444 82.1481 152 75.4484 152 67.6359C152 59.7997 153.456 53.1 156.368 47.5365C159.28 41.9494 163.245 37.6762 168.264 34.7169C173.283 31.7576 178.965 30.278 185.31 30.278C189.358 30.278 193.122 30.8462 196.602 31.9825C200.082 33.1189 203.184 34.7879 205.906 36.9896C208.629 39.1677 210.866 41.8429 212.618 45.0152C214.393 48.1639 215.554 51.7623 216.098 55.8106Z" fill="black"/>
<path d="M239.45 72.0393V103.999H226.595V31.2723H239.166V58.7226H239.805C241.083 55.6449 243.06 53.2183 245.735 51.4428C248.434 49.6435 251.867 48.7439 256.034 48.7439C259.822 48.7439 263.124 49.537 265.941 51.1231C268.759 52.7093 270.937 55.0294 272.476 58.0833C274.038 61.1373 274.819 64.866 274.819 69.2694V103.999H261.964V71.258C261.964 67.5885 261.017 64.7358 259.123 62.6998C257.253 60.6402 254.625 59.6104 251.24 59.6104C248.967 59.6104 246.931 60.1075 245.132 61.1018C243.356 62.0725 241.959 63.4811 240.941 65.3277C239.947 67.1743 239.45 69.4114 239.45 72.0393Z" fill="black"/>
<path d="M285.923 103.999V49.4541H298.778V103.999H285.923Z" fill="black"/>
<path d="M336.145 105.065C330.676 105.065 325.953 103.928 321.976 101.656C318.022 99.3593 314.98 96.1159 312.849 91.9256C310.719 87.7116 309.653 82.7519 309.653 77.0464C309.653 71.4356 310.719 66.5114 312.849 62.2737C315.004 58.0123 318.01 54.698 321.869 52.3305C325.728 49.9394 330.262 48.7439 335.47 48.7439C338.832 48.7439 342.004 49.2884 344.987 50.3774C347.994 51.4428 350.645 53.1 352.942 55.349C355.262 57.5981 357.085 60.4626 358.411 63.9427C359.736 67.3992 360.399 71.5184 360.399 76.3006V80.2424H315.69V71.5776H348.077C348.053 69.1155 347.52 66.9257 346.479 65.0081C345.437 63.0668 343.981 61.5398 342.111 60.4271C340.264 59.3144 338.11 58.7581 335.648 58.7581C333.02 58.7581 330.712 59.3973 328.723 60.6757C326.734 61.9304 325.184 63.5876 324.071 65.6473C322.982 67.6833 322.426 69.9204 322.402 72.3589V79.9228C322.402 83.0951 322.982 85.8177 324.142 88.0904C325.302 90.3395 326.924 92.0677 329.007 93.2751C331.09 94.4588 333.529 95.0506 336.322 95.0506C338.193 95.0506 339.885 94.7902 341.401 94.2694C342.916 93.7248 344.23 92.9318 345.342 91.8901C346.455 90.8484 347.295 89.5582 347.864 88.0194L359.866 89.3688C359.109 92.5412 357.665 95.311 355.534 97.6784C353.427 100.022 350.728 101.845 347.438 103.147C344.147 104.426 340.383 105.065 336.145 105.065Z" fill="black"/>
<path d="M399.902 49.4541V59.3973H367.658V49.4541H399.902ZM375.719 103.999V44.305C375.719 40.6355 376.477 37.5815 377.992 35.1431C379.531 32.7046 381.59 30.8817 384.171 29.6743C386.751 28.4669 389.616 27.8632 392.765 27.8632C394.99 27.8632 396.967 28.0408 398.695 28.3959C400.423 28.751 401.702 29.0706 402.53 29.3547L399.973 39.2979C399.429 39.1322 398.742 38.9664 397.914 38.8007C397.085 38.6113 396.162 38.5166 395.144 38.5166C392.753 38.5166 391.06 39.0966 390.066 40.2567C389.095 41.393 388.61 43.0266 388.61 45.1572V103.999H375.719Z" fill="black"/>
<path d="M471.304 31.2723V103.999H459.585L425.316 54.4612H424.713V103.999H411.538V31.2723H423.328L457.561 80.8461H458.2V31.2723H471.304Z" fill="black"/>
<path d="M481.659 103.999V31.2723H528.96V42.3163H494.834V62.0606H526.51V73.1046H494.834V92.9555H529.244V103.999H481.659Z" fill="black"/>
<path d="M540.205 42.3163V31.2723H598.231V42.3163H575.752V103.999H562.684V42.3163H540.205Z" fill="black"/>
<path d="M0 16.9616C0 7.59373 7.59416 -0.000427246 16.962 -0.000427246H117.038C126.406 -0.000427246 134 7.59373 134 16.9616V38.5882H122.975V27.9869C122.975 18.619 115.381 11.0249 106.013 11.0249H27.9873C18.6195 11.0249 11.0253 18.619 11.0253 27.9869V106.012C11.0253 115.38 18.6195 122.974 27.9873 122.974H106.013C115.381 122.974 122.975 115.38 122.975 106.012V95.835H134V117.038C134 126.405 126.406 134 117.038 134H16.962C7.59416 134 0 126.405 0 117.038V16.9616Z" fill="#007AFF"/>
<path d="M45.9519 42.5233C45.9519 44.6709 44.2045 46.4119 42.049 46.4119C39.8934 46.4119 38.146 44.6709 38.146 42.5233C38.146 40.3756 39.8934 38.6346 42.049 38.6346C44.2045 38.6346 45.9519 40.3756 45.9519 42.5233Z" fill="#1D1D1F"/>
<path d="M40.655 45.8564H43.4429V88.9095H40.655V45.8564Z" fill="#1D1D1F"/>
<path d="M45.9519 91.9649C45.9519 94.1125 44.2045 95.8536 42.049 95.8536C39.8934 95.8536 38.146 94.1125 38.146 91.9649C38.146 89.8172 39.8934 88.0762 42.049 88.0762C44.2045 88.0762 45.9519 89.8172 45.9519 91.9649Z" fill="#1D1D1F"/>
<path d="M95.854 42.5233C95.854 44.6709 94.1066 46.4119 91.9511 46.4119C89.7955 46.4119 88.0481 44.6709 88.0481 42.5233C88.0481 40.3756 89.7955 38.6346 91.9511 38.6346C94.1066 38.6346 95.854 40.3756 95.854 42.5233Z" fill="#1D1D1F"/>
<path d="M90.5572 45.5786H93.345V88.9095H90.5572V45.5786Z" fill="#1D1D1F"/>
<path d="M95.854 91.9649C95.854 94.1125 94.1066 95.8536 91.9511 95.8536C89.7955 95.8536 88.0481 94.1125 88.0481 91.9649C88.0481 89.8172 89.7955 88.0762 91.9511 88.0762C94.1066 88.0762 95.854 89.8172 95.854 91.9649Z" fill="#1D1D1F"/>
<path d="M43.4429 45.5939L45.4186 43.6343L90.5376 88.7919L88.5619 90.7516L43.4429 45.5939Z" fill="#1D1D1F"/>
<circle cx="292.173" cy="35.5" r="7.5" fill="#007AFF"/>
</svg>
